<?xml version="1.0" encoding="utf-8"?>
<!-- Generator: Adobe Illustrator 18.1.1, SVG Export Plug-In . SVG Version: 6.00 Build 0)  -->
<svg version="1.1" id="Layer_1" xmlns="http://www.w3.org/2000/svg" xmlns:xlink="http://www.w3.org/1999/xlink" x="0px" y="0px"
	 viewBox="0 0 657 696" enable-background="new 0 0 657 696" xml:space="preserve">
<g>
	<path fill="#005F2A" d="M179.1,515.3c-1.3,1.3-2.6,2.6-3.8,4c-13,16-26,32.1-38.9,48.2c-2.1,2.6-4.2,4-7.6,3.6
		c-3.4-0.3-3.5-0.1-4.5-3.6c-3.7-12-7.2-24-10.9-35.9c-0.7-2.2-1.5-4.3-2.2-6.5c-0.3,0-0.6-0.1-0.9-0.1c-0.7,1.4-1.4,2.7-2,4.1
		c-3.3,8.5-6.4,17-9.8,25.4c-4,9.8-9,19.2-15.6,27.6c-6.5,8.4-14.2,15.4-24.4,19c-13,4.6-25.5,3.4-37.3-3.7
		c-3.2-1.9-6.2-4.7-8.6-7.6c-5-6.3-5.4-13.3-1.8-20.5c2.2-4.6,5.7-8.1,9.8-11c9.8-6.9,20.9-9.8,32.8-9.1c2.9,0.2,5.9,1.4,8.6,2.7
		c1.6,0.8,3.1,2.4,4.1,3.9c2.4,3.8,0.8,7.6-3.6,8.5c-3.4,0.7-6.9,0.6-10.1-1.1c-10-5.3-19-2.3-27.6,3.1c-3.7,2.4-6.2,5.9-6.4,10.5
		c-0.2,6.1,2.9,10.3,8.1,12.8c10.1,4.8,20.4,5.3,30.6,0c5.4-2.8,9.6-6.8,13.4-11.4c7.5-9.1,12.7-19.6,17-30.5
		c5-13,8.7-26.3,10.8-40.2c0.6-4,0.4-7.2-3.7-9.4c-2-1.1-3.6-2.9-6-4.8c1.5-0.3,2.3-0.6,3.1-0.6c7.8,0,15.7,0,23.5,0
		c4.2,0,4.4,0.1,5.6,4.4c4.4,15.5,8.8,31,13.2,46.4c0.5,1.7,1.2,3.2,1.7,4.7c2.9,0,3.7-2,4.8-3.4c9.2-11.8,18.4-23.7,27.6-35.5
		c3.6-4.6,7.2-9.1,10.7-13.7c1.5-2,3.3-3,5.9-3c9.2,0.1,18.5,0,27.7,0.1c0.6,0,1.3,0.1,2.2,1c-1.8,1-3.5,2.3-5.5,3
		c-6.6,2.2-9.6,6.8-11.4,13.3c-7.1,25.6-14.7,51-22.1,76.5c-0.3,0.9-0.5,1.9-0.8,2.8c-0.9,2.5-0.2,4.5,1.8,6.2
		c1.6,1.3,3.1,2.7,4.6,4.1c0.8,0.8,1.5,1.8,2.7,3.2c-14.1,0-27.3,0-41.3,0c1.1-1.2,1.5-1.9,2.2-2.4c3.1-2.1,6.1-4.3,9.3-6.1
		c3.4-1.9,5.1-4.7,6.2-8.3c5.2-18.1,10.5-36.2,15.8-54.3c1.2-4.1,2.4-8.2,3.5-12.3c0.3-1.1,0.4-2.3,0.6-3.5
		C179.9,515.7,179.5,515.5,179.1,515.3z"/>
	<path fill="#005F2A" d="M521.3,533.3c1-0.1,2.1-0.3,3.1-0.3c11,0,22-0.1,33,0.1c3.4,0.1,6.9,0.4,10.2,1.4
		c8.5,2.6,12.2,10.1,9.4,18.6c-1.9,6.1-6,10.4-11.5,13.5c-1.1,0.6-2.4,1-3.2,1.8c-0.7,0.6-1.3,1.9-1.1,2.7c0.6,4.1,1.5,8.1,2.1,12.1
		c1.2,7.7,4.6,13.7,12,17c1.1,0.5,2,1.3,3.6,2.4c-1.6,0.3-2.4,0.5-3.1,0.5c-5,0-9.9,0-14.9,0c-1.9,0-3.4-0.6-4.8-1.9
		c-4.7-4.3-7.3-9.6-7.4-16c-0.1-3.7-0.3-7.4-0.6-11.1c-0.3-3.2-2.5-5.1-5.5-6c-3.5-1.1-6.1,0-7.2,3.5c-2,5.9-3.7,11.8-5.4,17.8
		c-0.3,1.2,0,2.7,0.6,3.9c1,2.1,2.4,4,3.5,6c0.5,0.9,1,1.8,1.5,2.8c-3,1.2-27.6,1.5-32.7,0.5c0.2-1.7,1.6-2.5,2.6-3.4
		c9.8-8.5,7.9-5.6,11.8-18.5c3.5-11.7,6.7-23.5,10.3-35.3c0.9-2.9,0.6-5-1.9-6.8c-1.8-1.3-3.3-2.9-4.9-4.4
		C520.9,533.9,521.1,533.6,521.3,533.3z M539.5,560.7c2.7,0.8,11.9,1.2,13.9,0.6c0.4-0.1,0.8-0.3,1.1-0.5
		c5.6-2.7,10.1-10.6,9.5-16.7c-0.3-3.5-2-5.3-5.5-5.5c-3-0.2-6-0.2-9.1-0.1c-3.5,0.1-3.9,0.4-5,3.7c-1.6,5-3.1,10-4.6,15
		C539.5,558.4,539.6,559.6,539.5,560.7z"/>
	<path fill="#005F2A" d="M446.8,533c18.6,0,37.2,0,55.9,0c-0.4,6-4.7,16.9-7.8,19.6c-0.3-1.2-0.5-2.2-0.7-3.2
		c-0.3-2.2-0.4-4.4-1-6.5c-0.9-3.1-2.5-4.3-5.7-4.4c-4.3-0.1-8.5,0-12.8,0c-2.3,0-4,0.8-4.7,3.2c-1.8,5.9-3.7,11.8-5.4,17.7
		c-0.1,0.4,0.1,0.8,0.1,1.5c3.3,1.1,6.7,0.4,10,0.1c3.9-0.3,5.1-4.2,8.2-6.4c0.1,1.1,0.4,1.7,0.2,2.3c-1.9,7-3.8,13.9-5.9,21.4
		c-2-1.5-1.8-3.1-2-4.5c-0.6-3.9-1.6-4.9-5.4-5.6c-0.5-0.1-1.1-0.2-1.6-0.3c-5.1-0.6-5.9,0-7.4,4.8c-1.9,6-3.8,12-5.7,18.1
		c-0.4,1.3-0.5,2.6-0.9,4.3c1.9,0.2,3.4,0.5,4.8,0.5c4.5,0.1,9.1-0.1,13.6,0.1c4.1,0.2,7.2-1.3,9.9-4.2c1.4-1.5,2.6-3.2,3.9-4.8
		c0.9-1.1,1.9-2.2,3.8-3.1c0.1,0.9,0.5,2,0.3,2.8c-1.3,4.8-2.7,9.5-4.1,14.2c-0.5,1.6-1.6,2.4-3.4,2.4c-2.7-0.1-5.5,0-8.3,0
		c-13.9,0-27.8,0-41.7,0c-1.5,0-2.9-0.1-4.5-0.2c-0.2-2.2,1.1-3.1,2.2-4c10.5-8.4,8.7-7.5,12.3-19.6c3.4-11.2,6.5-22.5,9.9-33.6
		c1-3.2,0.6-5.5-2.2-7.5c-1.6-1.1-2.9-2.8-4.4-4.2C446.5,533.7,446.7,533.4,446.8,533z"/>
	<path fill="#005F2A" d="M400.3,602.3c-3.8,1-30,1.1-33.8,0.2c0.5-1.9,2.1-2.9,3.5-3.8c5.2-3.3,7.8-7.9,9.4-13.8
		c3.3-12.5,7.3-24.8,10.9-37.2c1.4-4.6,1.3-5-3.1-6.8c-2.2-1-4.6-1.8-7-2c-4.7-0.4-6.5,1.7-6.1,6.5c0.1,1.5,0.4,3,0.3,4.5
		c-0.2,3.5-2.4,6-5.7,6.7c-3.8,0.8-7-1.5-7.1-5.4c-0.1-4.4,1.3-8.5,4.3-11.7c6.3-6.6,13.8-10,23-8c6.7,1.4,13.3,3.3,20.1,4.7
		c3.3,0.7,6.8,0.9,10.2,0.8c3.8-0.1,6.8-1.8,7.9-6c0.6-2.3,2.4-3.7,4.7-4.1c3.5-0.6,6.1,1.8,5.4,5.2c-0.4,1.8-1.4,3.6-2.7,5
		c-4.7,4.9-10.1,8.4-17.2,8.6c-2.6,0.1-5.2,0.1-7.8,0.2c-3.2,0.1-3.7,0.3-4.5,3.2c-3.9,13.8-7.6,27.6-11.5,41.3
		c-0.7,2.4,0,4.3,1.6,6C396.8,598.3,398.5,600.2,400.3,602.3z"/>
	<path fill="#005F2A" d="M295,577.9c0.7,2.2,1.3,3.7,1.6,5.2c2.6,12.8,13.7,15.7,23,13.5c3.6-0.9,6.2-3.1,6.9-6.9
		c0.8-3.7-0.5-6.8-3.4-9.2c-2-1.6-4.3-2.9-6.4-4.5c-4.9-3.8-10-7.4-14.4-11.7c-6.9-6.8-7-13.6-1.1-21.4c6.5-8.5,17.5-12,27.7-8.8
		c2.4,0.7,4.7,1.6,7,2.4c3.1,1,5.9,0.6,8.5-1.5c1-0.8,2.2-1.4,4.1-2.5c-0.2,4.9-1.8,8.5-2.9,12.2c-1.1,3.7-1.9,7.6-3.8,11
		c-0.4,0-0.7,0-1.1,0c-0.5-1.8-1-3.5-1.4-5.3c-2-8.7-10.2-13.5-18.6-10.9c-3,0.9-5.4,2.8-6.8,5.7c-1.7,3.5-1.7,7,1.2,9.9
		c2.3,2.3,4.9,4.4,7.5,6.4c3.5,2.6,7.3,4.9,10.9,7.5c6.5,4.8,9.2,12.5,6.9,19.2c-0.3,1-0.8,2-1.4,3c-5.2,9.4-21.5,17.4-33.8,11.6
		c-2.6-1.2-5.3-2.8-8.2-2.1c-2.5,0.5-4.9,1.7-7.3,2.5c-0.9,0.3-2.3,0.7-2.6,0.3c-0.6-0.7-0.9-2.1-0.7-2.9c2.1-6.7,4.3-13.4,6.5-20
		C293.2,579.9,293.9,579.3,295,577.9z"/>
	<path fill="#005F2A" d="M597.7,578.6c0.5,1.5,1.1,3,1.4,4.5c2.7,12.9,13.8,15.6,22.9,13.5c3.5-0.8,6.2-3.1,7-6.9
		c0.8-3.7-0.4-6.8-3.3-9.2c-1.9-1.5-4.1-2.8-6.1-4.3c-4.8-3.7-9.6-7.4-14.2-11.2c-1.5-1.2-2.6-2.8-3.6-4.4
		c-2.7-4.1-2.9-8.4-0.9-12.9c4.9-10.9,17.7-16.9,29.2-13.8c2.2,0.6,4.5,1.4,6.6,2.2c3.9,1.5,7.5,1.5,10.8-1.4c0.8-0.7,1.8-1,3-1.6
		c1.1,3.1-0.6,5.4-1.1,7.8c-0.6,2.7-1.5,5.3-2.4,7.9c-0.9,2.3-0.9,5.1-3.3,7.3c-0.6-1.1-1.1-1.9-1.3-2.7c-0.4-1.5-0.5-3-0.9-4.4
		c-2.5-8-12.2-12.2-19.8-8.6c-5.5,2.6-9.5,10.7-2.9,16.3c3.8,3.2,7.9,6,11.9,8.9c2,1.5,4.2,2.7,6.1,4.2c8.8,7.1,9.4,17.9,1.6,26
		c-8.6,9-21,11.5-32.5,6.4c-4.1-1.8-8-1.8-11.9,0.3c-0.4,0.2-0.7,0.5-1.1,0.6c-1.1,0.3-2.5,1.1-3.4,0.7c-1.5-0.8-0.8-2.4-0.4-3.7
		c1.9-6,3.8-12.1,5.8-18.1c0.4-1.2,1.2-2.2,1.8-3.4C597,578.5,597.4,578.6,597.7,578.6z"/>
	<path fill="#005F2A" d="M285.2,531.8c-1.2,0.8-2.3,1.8-3.6,2.2c-3.3,1.3-5,3.6-5.9,6.9c-4.4,16-9,32-13.5,48
		c-0.8,2.9-0.3,5.3,2.1,7.4c1.9,1.7,3.5,3.7,5.1,6.1c-11.3,0.9-22.4,0.6-33.5,0.6c-0.1-0.3-0.3-0.7-0.4-1c1.2-1.2,2.3-2.7,3.7-3.5
		c5.8-3.5,9.1-8.5,10-15.2c0.4-2.8,1.4-5.5,2.3-9c-4,0-7.2-0.1-10.5,0c-8.9,0.1-7.5-0.8-10.8,6.9c-2.8,6.6-6.7,12.6-12,17.6
		c-5.3,5-11.5,8.1-18.9,8.1c-2,0-4.2-0.2-6.1-0.9c-3.1-1-4.4-3.5-4-6.4c0.3-2.3,2.3-4.1,5.3-4.3c1.6-0.1,3.2,0.3,4.8,0.7
		c1,0.3,1.9,1.1,2.9,1.5c3.5,1.4,6.2,0.8,8.3-2.4c1.8-2.8,3.2-5.8,4.3-8.9c2.1-5.9,3.8-12.1,5.9-18c2.2-6.1,4.6-12.1,7.4-17.9
		c5.7-11.8,15.4-18.1,28.2-19.4c7.9-0.7,15.9-0.8,23.9-1c1.5,0,3,0.5,4.5,0.8C285.1,531.2,285.1,531.5,285.2,531.8z M235.7,568.5
		c1.3,0.1,2.5,0.3,3.7,0.3c3.3,0,6.6,0,9.9,0c4.1,0,4.3-0.1,5.5-4c2.4-8,4.8-16,7.1-24.1c0.2-0.8,0-1.8,0-2.6
		c-5.7-2.1-14.8,0.4-18.3,7c-3.6,6.9-6.1,14.1-8,21.6C235.5,567.1,235.7,567.7,235.7,568.5z"/>
</g>
<g>
	<path fill="#FFFFFF" d="M358.8,475.9c-53.1,0-103.1-13.8-140.7-38.9c-38-25.3-59-59.1-59-95.1c0-36,20.9-69.8,59-95.1
		c37.6-25.1,87.6-38.9,140.7-38.9c53.1,0,103.1,13.8,140.7,38.9c38,25.3,59,59.1,59,95.1c0,36-20.9,69.8-59,95.1
		C461.9,462.1,411.9,475.9,358.8,475.9z M358.8,233.1c-91,0-165,48.8-165,108.8c0,60,74,108.8,165,108.8c91,0,165-48.8,165-108.8
		C523.8,281.9,449.8,233.1,358.8,233.1z"/>
	<path fill="#005F2A" d="M358.8,211c108.6,0,196.6,58.6,196.6,130.9c0,72.3-88,130.9-196.6,130.9c-108.6,0-196.6-58.6-196.6-130.9
		C162.2,269.7,250.2,211,358.8,211 M358.8,453.9c92.8,0,168.1-50.1,168.1-111.9c0-61.8-75.2-111.9-168.1-111.9
		C266,230,190.7,280.1,190.7,342C190.7,403.8,266,453.9,358.8,453.9 M358.8,204.9c-53.7,0-104.3,14-142.4,39.4
		c-18.8,12.5-33.6,27.1-43.9,43.4C161.5,304.8,156,323.1,156,342c0,18.9,5.5,37.1,16.4,54.3c10.4,16.3,25.1,30.9,43.9,43.4
		C254.5,465,305.1,479,358.8,479c53.7,0,104.3-14,142.4-39.4c18.8-12.5,33.6-27.1,43.9-43.4c10.9-17.1,16.4-35.4,16.4-54.3
		c0-18.9-5.5-37.1-16.4-54.3c-10.4-16.3-25.1-30.9-43.9-43.4C463.1,218.9,412.5,204.9,358.8,204.9L358.8,204.9z M358.8,447.7
		c-43.7,0-84.7-11.3-115.4-31.7c-30-20-46.5-46.2-46.5-74c0-27.8,16.5-54,46.5-74c30.7-20.5,71.7-31.7,115.4-31.7
		c43.7,0,84.7,11.3,115.4,31.7c30,20,46.5,46.2,46.5,74c0,27.8-16.5,54-46.5,74C443.5,436.4,402.5,447.7,358.8,447.7L358.8,447.7z"
		/>
</g>
<path fill="#005F2A" d="M186.7,327.5c0,0-4-43.3,21.3-69.3s54.7-36,54.7-36v31.3c0,0-64,18.7-71.3,91.3"/>
<path fill="#005F2A" d="M473,422.5v30c0,0,43.5-22,62.5-50.5c0-28,0-39.5,0-39.5L473,422.5z"/>
<line fill="none" stroke="#005F2A" stroke-width="7" stroke-miterlimit="10" x1="232.5" y1="445.5" x2="232.5" y2="418"/>
<line fill="none" stroke="#005F2A" stroke-width="7" stroke-miterlimit="10" x1="243" y1="450" x2="243" y2="422.5"/>
<line fill="none" stroke="#005F2A" stroke-width="9" stroke-miterlimit="10" x1="256" y1="456.5" x2="256" y2="429"/>
<line fill="none" stroke="#005F2A" stroke-width="9" stroke-miterlimit="10" x1="272" y1="247.9" x2="272" y2="220.4"/>
<line fill="none" stroke="#005F2A" stroke-width="9" stroke-miterlimit="10" x1="286" y1="243.9" x2="286" y2="216.4"/>
<line fill="none" stroke="#005F2A" stroke-width="9" stroke-miterlimit="10" x1="433.3" y1="245.2" x2="433.3" y2="217.7"/>
<line fill="none" stroke="#005F2A" stroke-width="9" stroke-miterlimit="10" x1="448" y1="252.5" x2="448" y2="225"/>
<line fill="none" stroke="#005F2A" stroke-width="9" stroke-miterlimit="10" x1="462" y1="257.9" x2="462" y2="230.4"/>
<line fill="none" stroke="#005F2A" stroke-width="7" stroke-miterlimit="10" x1="488" y1="273.2" x2="488" y2="245.7"/>
<line fill="none" stroke="#005F2A" stroke-width="9" stroke-miterlimit="10" x1="425.3" y1="469.2" x2="425.3" y2="441.7"/>
<line fill="none" stroke="#005F2A" stroke-width="17" stroke-miterlimit="10" x1="446.7" y1="461.2" x2="446.7" y2="433.7"/>
<polygon fill="#005F2A" points="193.5,389 193.5,417 223,439 223,408.5 "/>
<path fill="#FFFFFF" stroke="#005F2A" stroke-width="6.1668" d="M501,290.8v21.7c-4.8,2.3-8,3-10.3,4c-2,0.9-2.6,1.2-5.9,2.9
	c-1.4,0.7-3.4,1.2-5,1.8c-1.5,0.6-1.4-0.3-4.4,1.1c-2.1,1-4.8,2.2-7.1,3.3c-0.6,0.3-2.6,0.7-2.9,0.4c-0.5-0.8,3.3-2.6,4.1-3.2
	c-2.2,0.5-5.4,2-7.1,2.9c-9,3.4-11.1,4.7-25.4,9.3c-1,2.6-0.8,4.9,1.1,7.4c1.6,2.2-4.8,3.4-7.3,2.8c-3.6-0.8-4.4-2.4-5.9-4.5
	c-0.3-0.3-0.6-2.3-1.3-2.2c-7.7,1.6-16.3,4.7-24.3,6c-1.7,0.3-4,5.5-4.9,6.8c-1.2,1.9-2.6,5.2-6,5c-2.4-0.1-4.7-1.8-5.9-1.3
	c-3,1.1-4.9,3.3-7.6,4.8c-3.7,2.1-7.6,1.8-10.9,0.8c-2.7-0.9-6-2.8-7.2-4.6c-1.2-1.8,0.7-14.6,0.7-14.6s-1.6,4.9-3.3,6.7
	c-3.3,3.5-6.5,7.7-9.9,11.2c-2.2,2.2-4.7,6.3-9.2,10.8c-0.8,0.9-1.3,1.6-2.5,2.2c-2.9,1.7-7.2,0.5-9.2-0.2c-2.4-0.8-3.8-2.1-4.2-4
	c-0.6-2.6-1.4-20.4-0.2-23.2c3.7-8.3,0.6,1.3,2.8-7.2c-7.4,6.9-4.1,25.6-4.3,25.8c-6.4,5.4-9.4,6.2-12.5,11.9
	c-0.4,0.8-2.4,3.5-3.8,3.8c-1.8,0.4-8.9-0.2-10.3,0.3c-7.8,2.7-12.6,3.1-20.8,4.8c-7.4,1.5-17.8,3.6-26.9-3.6
	c-4.8-7.3-3.6-21-3.2-29.5"/>
<polyline fill="#005F2A" points="331,347.5 331,372.2 356.5,346 356,326 "/>
<line fill="none" stroke="#005F2A" stroke-width="7" stroke-miterlimit="10" x1="300.5" y1="379.5" x2="300.5" y2="352"/>
<line fill="none" stroke="#005F2A" stroke-width="7" stroke-miterlimit="10" x1="289" y1="380" x2="289" y2="352.5"/>
<line fill="none" stroke="#005F2A" stroke-width="7" stroke-miterlimit="10" x1="277.5" y1="382.5" x2="277.5" y2="355"/>
<line fill="none" stroke="#005F2A" stroke-width="7" stroke-miterlimit="10" x1="383" y1="355" x2="383" y2="327.5"/>
<line fill="none" stroke="#005F2A" stroke-width="7" stroke-miterlimit="10" x1="421.5" y1="338" x2="421.5" y2="310.5"/>
<line fill="none" stroke="#005F2A" stroke-width="7" stroke-miterlimit="10" x1="398" y1="346" x2="398" y2="318.5"/>
<line fill="none" stroke="#005F2A" stroke-width="7" stroke-miterlimit="10" x1="437.5" y1="343" x2="437.5" y2="315.5"/>
<line fill="none" stroke="#005F2A" stroke-width="7" stroke-miterlimit="10" x1="466" y1="326.5" x2="466" y2="299"/>
<line fill="none" stroke="#005F2A" stroke-width="7" stroke-miterlimit="10" x1="475" y1="320" x2="475" y2="292.5"/>
<g>
	<path fill="#D7242F" d="M358.8,454.3c-53.1,0-103.1-13.8-140.7-38.9c-38-25.3-59-59.1-59-95.1c0-36,20.9-69.8,59-95.1
		c37.6-25.1,87.6-38.9,140.7-38.9c53.1,0,103.1,13.8,140.7,38.9c38,25.3,59,59.1,59,95.1c0,36-20.9,69.8-59,95.1
		C461.9,440.5,411.9,454.3,358.8,454.3z M358.8,211.5c-91,0-165,48.8-165,108.8c0,60,74,108.8,165,108.8c91,0,165-48.8,165-108.8
		C523.8,260.3,449.8,211.5,358.8,211.5z"/>
	<path fill="#005F2A" d="M358.8,189.4c108.6,0,196.6,58.6,196.6,130.9c0,72.3-88,130.9-196.6,130.9c-108.6,0-196.6-58.6-196.6-130.9
		C162.2,248,250.2,189.4,358.8,189.4 M358.8,432.2c92.8,0,168.1-50.1,168.1-111.9c0-61.8-75.2-111.9-168.1-111.9
		c-92.8,0-168.1,50.1-168.1,111.9C190.7,382.1,266,432.2,358.8,432.2 M358.8,183.2c-53.7,0-104.3,14-142.4,39.4
		c-18.8,12.5-33.6,27.1-43.9,43.4c-10.9,17.1-16.4,35.4-16.4,54.3c0,18.9,5.5,37.1,16.4,54.3c10.4,16.3,25.1,30.9,43.9,43.4
		c38.1,25.4,88.7,39.4,142.4,39.4c53.7,0,104.3-14,142.4-39.4c18.8-12.5,33.6-27.1,43.9-43.4c10.9-17.1,16.4-35.4,16.4-54.3
		c0-18.9-5.5-37.1-16.4-54.3c-10.4-16.3-25.1-30.9-43.9-43.4C463.1,197.2,412.5,183.2,358.8,183.2L358.8,183.2z M358.8,426
		c-43.7,0-84.7-11.3-115.4-31.7c-30-20-46.5-46.2-46.5-74c0-27.8,16.5-54,46.5-74c30.7-20.5,71.7-31.7,115.4-31.7
		c43.7,0,84.7,11.3,115.4,31.7c30,20,46.5,46.2,46.5,74c0,27.8-16.5,54-46.5,74C443.5,414.8,402.5,426,358.8,426L358.8,426z"/>
</g>
<g>
	<path fill="#D7242F" d="M257.3,367.4c-5.5,0-9.7-1.3-12.7-4.1c-2.9-2.6-3.6-6-2.2-9.5c-1.2-0.8-2.4-2.1-2.6-3.9
		c-0.6-6.3,1.7-11.1,4-15.8c1.6-3.2,3-6.2,3.5-9.5c-0.1-0.3-0.2-0.6-0.3-0.8c-0.8-1.4-1-3.3-0.5-5c0.4-1.3,1.2-2.4,2.3-3
		c0.3-0.2,0.9-0.4,1.4-0.7c0.3-0.2,0.7-0.3,0.9-0.5c0.1-0.1,0.4-0.3,0.6-0.5c0.7-0.7,1.6-1.6,3-1.9c0.7-0.2,1.4-0.2,2.2-0.2
		c0,0,1.6,0,1.6,0c0.2,0,0.4,0,0.5,0c0.6-0.1,1.9-0.4,4.1-0.9l0.1,0c4.2-1.1,7.6-1.9,10.9-2.8c4.4-1.1,8.6-2.2,14.2-3.6
		c0.9-0.2,2.1-0.6,3.3-0.9c3.6-1.1,7.6-2.2,11.2-2.2c0.3,0,0.6,0,0.9,0c3.6,0.2,8.7,4.3,9.4,7.6c0.4,1.8-0.4,3.5-2,4.4
		c-1.3,0.6-2.9,1.2-4.4,1.8c-1,0.4-2,0.7-2.7,1c-3,1.3-6.1,2.3-9.1,3.2c-2.4,0.8-4.7,1.5-6.9,2.4c0.4-0.1,1.4-0.3,1.4-0.3
		c0.8-0.2,2.3-0.4,3.9-0.4c2.1,0,3.8,0.5,5.1,1.4c1.9,1.3,4.1,3.6,4.2,6.4c0,0.2,0,0.4,0,0.6c1.3-1.7,2.7-3.3,4-4.9
		c3.6-4.4,7.2-8.9,10.9-13.7l0.8-1.1c4.1-5.5,9.7-13,18.9-15.4c1.1-0.3,2.2-0.4,3.5-0.4c5.1,0,11.8,2.6,14.2,7.4
		c1.2,2.4,0.4,4.6-0.1,6.1c-0.1,0.3-0.2,0.5-0.2,0.8c-0.1,0.3-0.1,0.5-0.2,0.8c0.4-0.5,0.9-1.1,1.3-1.7c5.6-6.9,11.4-14,20.8-19.4
		c1.8-1,3.6-1.5,5.5-1.5c4.6,0,8.1,3.1,9.4,4.4c5.9,6.1,0.3,13.2-2.7,17l-0.4,0.6c-0.9,1.2-1.9,2.4-2.9,3.7c1.5-0.1,2.7-0.3,3.2-0.5
		c1.2-0.4,1.5-0.9,2.2-2.1c0.5-0.8,1.1-1.7,2-2.7c1.2-1.2,2.1-2.7,3.2-4.2c0.8-1.2,1.6-2.4,2.6-3.6l1.6-1.9
		c3.1-3.8,6.3-7.7,9.7-11.5c5.3-6,10-10.2,15.3-13.6l0.5-0.3c1.5-0.9,3.2-2,5-2.9c1-0.5,2.2-0.7,3.8-0.7c2.6,0,5.5,0.6,6.6,0.9
		c3,0.7,7,2.8,8.5,5.2c2,3.2,1,6.7,0.3,9.2c-0.1,0.3-0.2,0.7-0.3,1c-1.5,5.4-3.3,9.6-4.8,13c-0.1,0.2-0.2,0.4-0.3,0.6
		c1.9-0.8,3.9-1.6,6-2.5c4.5-1.9,9.5-4.1,15.5-6.2c6.3-2.3,11.3-3.9,17.4-5.6c1.6-0.4,4.6-0.9,7.2-0.9c1,0,1.7,0.1,2.4,0.2
		c2.4,0.4,7.5,2.9,8.4,6.4c0.4,1.7-0.1,3.4-1.5,4.5c-1.6,1.3-3.6,2-5.6,2.7c-0.9,0.3-1.7,0.6-2.4,0.9c-2,0.9-2.6,1.2-5.8,2.9
		c-1.1,0.6-2.3,1-3.5,1.3c-0.6,0.2-1.2,0.4-1.8,0.6c-1.1,0.4-1.9,0.4-2.4,0.4c-0.3,0-0.5,0-1.8,0.6c-1.1,0.6-2.4,1.2-3.7,1.7
		c-1.1,0.5-2.3,1.1-3.4,1.6c-0.9,0.4-2.6,0.8-3.7,0.8c-1,0-1.7-0.3-2.3-0.7l0,0l-0.2,0.1c-2.4,0.9-4.3,1.7-6.1,2.4
		c-4.7,1.9-8.5,3.4-18,6.5c-0.1,0.9,0.2,1.9,1.1,3.1c1,1.3,1.2,2.9,0.5,4.3c-1.7,3.5-7.9,3.6-8.6,3.6c-0.9,0-1.6-0.1-2.3-0.2
		c-4.3-1-5.9-3.1-7.2-5c-0.1-0.2-0.3-0.4-0.5-0.6c-0.1-0.2-0.2-0.4-0.3-0.5c-2.6,0.6-5.3,1.4-8.1,2.1c-4.5,1.3-9.2,2.5-13.7,3.3
		c-0.7,0.8-1.9,3-2.4,3.9c-0.4,0.7-0.7,1.2-0.9,1.7c-0.1,0.2-0.3,0.5-0.5,0.8c-1.2,2-3.3,5.6-7.9,5.6c0,0,0,0,0,0
		c-0.1,0-0.3,0-0.5,0c-1.6-0.1-3-0.6-4.1-1c-0.3-0.1-0.7-0.3-1-0.3c-1.2,0.5-2.2,1.3-3.4,2.2c-1,0.7-2,1.5-3.3,2.2
		c-2.3,1.3-4.9,2-7.6,2c-1.9,0-3.8-0.3-5.8-1c-3.2-1-7.1-3.2-8.8-5.8c-0.8-1.2-1-2.6-0.8-4c-0.5,0.5-0.9,1.1-1.4,1.6
		c-1.8,2.1-3.6,4.2-5.4,6.1c-0.8,0.8-1.6,1.9-2.7,3.2c-1.7,2.1-3.7,4.8-6.5,7.6c-0.2,0.2-0.3,0.4-0.5,0.5c-0.6,0.7-1.4,1.5-2.7,2.2
		c-1.4,0.8-3.1,1.2-5.1,1.2c-2,0-4.1-0.4-6.5-1.2c-3.5-1.2-5.6-3.3-6.2-6.3c0,0,0,0,0,0c-0.2,0.1-0.4,0.3-0.6,0.4
		c-3.5,2.6-6.1,4.4-7.8,7.7c0,0.1-2.7,4.8-5.9,5.4c-0.6,0.1-1.5,0.2-3,0.2c-0.8,0-1.7,0-2.6,0c-0.9,0-1.8,0-2.6,0
		c-1.2,0-1.7,0-1.9,0.1c-6,2-10.2,2.8-15.6,3.8c-1.7,0.3-3.5,0.6-5.6,1.1l-0.2,0C266.7,366.4,261.9,367.4,257.3,367.4z M298.4,335.1
		c-3.9,2.6-8.4,4.8-12.8,6.8c-2.6,1.2-5.2,2.4-7.6,3.7c-3.2,1.7-5.3,3.1-7.4,4.6c7.2-2,11.7-4.3,17-7.1c2.4-1.2,4.8-2.5,7.6-3.8
		C296.2,337.9,297.3,336.5,298.4,335.1z M258,340.3c-0.2,0.3-0.4,0.7-0.6,1c0.5-0.3,1.1-0.7,1.6-1c-0.2,0-0.5,0-0.7,0
		C258.1,340.3,258,340.3,258,340.3z M379.9,319.2c-0.5,0.6-0.9,1.2-1.3,1.8c0.2-0.1,0.5-0.3,0.7-0.4c0.3-0.2,0.9-0.6,1-0.6
		c-0.1-0.2-0.2-0.4-0.3-0.6C380,319.3,380,319.2,379.9,319.2z M429.1,288.7c-6.5,6.6-11.3,12.6-16.2,19.4c0.6-0.2,1.2-0.3,1.8-0.5
		c1.4-0.4,2.9-0.8,4.3-1.2c1.7-0.4,3-0.8,4.2-1.4c0.8-5,2.8-9.4,4.7-13.7C428.3,290.4,428.7,289.5,429.1,288.7
		C429.1,288.7,429.1,288.7,429.1,288.7z"/>
	<path fill="#005F2A" d="M434.5,271.3c2,0,4.4,0.4,5.9,0.8c2.5,0.6,5.6,2.4,6.6,3.9c1.5,2.3,0.3,5.1-0.4,7.8
		c-2.6,9.5-6.5,15.2-7.3,19.6c8-2.7,16.1-6.9,27.7-11.1c5.9-2.1,11-3.8,17.2-5.5c1.5-0.4,4.2-0.8,6.4-0.8c0.7,0,1.3,0,1.9,0.1
		c2.7,0.5,7.7,3.8,5.6,5.5c-1.8,1.4-5,2.2-7.3,3.2c-2,0.9-2.6,1.2-5.9,2.9c-1.4,0.7-3.4,1.2-5,1.8c-1.5,0.6-1.4-0.3-4.4,1.1
		c-2.1,1-4.8,2.2-7.1,3.3c-0.4,0.2-1.7,0.5-2.4,0.5c-0.3,0-0.4,0-0.5-0.1c-0.5-0.8,3.3-2.6,4.1-3.2c-2.2,0.5-5.4,2-7.1,2.9
		c-9,3.4-11.1,4.7-25.4,9.3c-1,2.6-0.8,4.9,1.1,7.4c1.4,1.8-2.8,3-5.7,3c-0.6,0-1.1,0-1.6-0.2c-3.6-0.8-4.4-2.4-5.9-4.5
		c-0.2-0.3-0.6-2.2-1.3-2.2c0,0,0,0-0.1,0c-7.7,1.6-16.3,4.7-24.3,6c-1.7,0.3-4,5.5-4.9,6.8c-1.2,1.8-2.5,5-5.7,5
		c-0.1,0-0.2,0-0.3,0c-2.1-0.1-4.1-1.4-5.4-1.4c-0.2,0-0.3,0-0.5,0.1c-3,1.1-4.9,3.3-7.6,4.8c-2,1.1-4.1,1.6-6.1,1.6
		c-1.7,0-3.3-0.3-4.9-0.8c-2.7-0.9-6-2.8-7.2-4.6c-1.2-1.8,0.8-5.4,1.1-7.5c0.3-2,1-3.1,1.9-5c0.5-1.3,1.1-2,1.2-2.3
		c0.1-0.3,0.2-0.5-0.2-0.5c-2.3,2.4-4.2,4.9-6.6,7.4c-3.3,3.5-6.5,7.7-9.9,11.2c-2.2,2.2-4.7,6.3-9.2,10.8c-0.8,0.9-1.3,1.6-2.5,2.2
		c-1.1,0.6-2.4,0.9-3.6,0.9c-2.1,0-4.3-0.6-5.5-1.1c-2.4-0.8-3.8-2.1-4.2-4c-0.6-2.6,2.2-6.5,3.4-9.2c3.7-8.3,9.4-15.9,11.7-24.3
		c-7.4,6.9-10.9,14.9-17.5,22.4c-1.6,1.8-3.6,3.5-3.9,5.3c0,0.2,0.2,0.3,0.7,0.3c0.7,0,1.8-0.2,2.7-0.2c0.1,0,0.2,0,0.3,0
		c0,0,0.1,0,0.1,0c0.6,0,1.4-0.3,2.2-0.4c0,0,0,0,0,0c0.3,0,0.6,0.3,0.4,0.5c-6.4,5.4-11.2,7.3-14.2,13c-0.4,0.8-2.4,3.5-3.8,3.8
		c-0.5,0.1-1.3,0.1-2.4,0.1c-1.6,0-3.6-0.1-5.2-0.1c-1.3,0-2.3,0-2.7,0.2c-7.8,2.7-12.6,3.1-20.8,4.8c-3.8,0.8-8.5,1.7-12.9,1.7
		c-4.1,0-7.9-0.8-10.7-3.3c-2.7-2.5-2.2-5.5-0.2-8c0.4-0.6-3.3-1.5-3.5-3.4c-1-9.7,6.6-16,7.6-25.2c0-0.3-0.5-1.6-0.8-2.2
		c-0.6-1-0.5-3.1,0.6-3.7c0.5-0.3,1.7-0.8,2.3-1.1c1-0.5,1.8-1.9,2.9-2.2c0.3-0.1,0.9-0.1,1.5-0.1c0.5,0,1,0,1.5,0c0.4,0,0.8,0,1,0
		c1-0.1,3.6-0.8,4.6-1c9.8-2.4,15.3-4,25.1-6.4c3.8-0.9,9.5-3.1,13.8-3.1c0.3,0,0.5,0,0.7,0c2.8,0.2,8.1,5.1,6.1,6.1
		c-1.8,0.9-4.9,1.8-6.9,2.7c-5.2,2.2-10.9,3.6-16.1,5.6c-9.1,3.6-12.6,5.5-22.4,10.7c10.4-0.3,15.2-3.3,25.2-5
		c0.6-0.1,2.1-0.5,3.7-0.5c1.2,0,2.5,0.2,3.4,0.8c2.3,1.5,3.9,4.2,2,5.7c-6,4.9-15,8.1-22.4,12c-7.9,4.3-9.8,6.6-18.4,12.1
		c-0.3,0.2-1.5,0.8-0.5,0.8c0.2,0,0.5,0,0.9-0.1c21.1-3.1,25.6-7.9,38.6-14c7.6-10.2,15.2-18.8,23-29c4.1-5.4,9.3-13.1,18-15.3
		c0.8-0.2,1.8-0.3,2.7-0.3c4.6,0,9.8,2.4,11.5,5.7c0.8,1.5-0.2,3.3-0.6,4.7c-1.5,5.6-5.7,10.6-7.1,16.3c12.8-10.1,18-24.2,33.5-33.1
		c1.4-0.8,2.7-1.1,4-1.1c3.2,0,5.8,2,7.2,3.5c4.2,4.3-0.3,9.6-3.3,13.6c-5.7,7.3-12.6,14.6-15.1,22.9c3.5-2,6.9-4.3,10.2-6.3
		c1.8-1.1,2.8-1.5,3.6-3.1c0.2-0.4-1.4-1.1-1.7-1.9c-0.4-0.8,1-2.9,2.3-2.9c1.5-0.1,3.5-0.3,4.6-0.8c3.2-1.2,3.3-3.3,5.4-5.5
		c2.3-2.4,3.9-5.5,5.9-8c3.7-4.5,7.3-8.9,11.2-13.4c4.2-4.7,8.8-9.3,14.6-13c1.6-1,3.4-2.1,5.2-3.1
		C432.6,271.4,433.5,271.3,434.5,271.3 M407.2,312.6c1.4,0,3.7-0.7,5.2-1.1c2.5-0.7,5-1.4,7.5-2c2.4-0.6,4.4-1.2,6.3-2.4
		c0.9-8.8,6.2-16,8.7-24.9c0.1-0.5,0.3-1.3-0.2-1.3c0,0-0.1,0-0.1,0c-3.7,0.9-5.5,3.5-7.6,5.7c-8.6,8.8-14.5,16.7-20.7,25.8
		C406.4,312.5,406.8,312.6,407.2,312.6 M261.6,337.3c-1.1,0-2.3-0.1-3.4-0.1c-1,0-1.9,0.1-2.4,0.7c-2.2,2.7-2.7,5.9-3.9,9
		c-0.2,0.5,0,1.3,0.1,1.3c0,0,0,0,0,0c6.2-4,12.1-7.6,18.4-11.4c0.3-0.2-0.1-0.5-0.4-0.5c0,0,0,0,0,0c-2.5,0.1-4.8,0.6-7.3,0.9
		C262.5,337.3,262.1,337.3,261.6,337.3 M434.5,265.1c-2.1,0-3.8,0.3-5.2,1.1c-1.9,1-3.7,2.1-5.2,3l-0.5,0.3l0,0l0,0
		c-5.5,3.5-10.4,7.9-15.9,14.1c-3.4,3.9-6.6,7.8-9.8,11.6l-0.7,0.9c-0.2-2.7-1.4-5.2-3.4-7.4c-1.9-2-6-5.3-11.6-5.3
		c-2.4,0-4.8,0.7-7.1,1.9c-7.4,4.2-12.6,9.4-17.2,14.8c0,0,0-0.1,0-0.1c-3-6-10.8-9.1-17-9.1c-1.5,0-2.9,0.2-4.2,0.5
		c-10.1,2.6-16.4,10.9-20.5,16.4c-1.4-4.4-7.3-9-12-9.3c-0.3,0-0.7,0-1.1,0c-4,0-8.3,1.3-12.1,2.4c-1.2,0.3-2.3,0.7-3.2,0.9
		c-5.6,1.4-9.8,2.4-14.2,3.6c-3.3,0.9-6.7,1.7-10.9,2.8l-0.2,0c-2.5,0.6-3.3,0.8-3.6,0.8l0,0c-0.1,0-0.2,0-0.3,0c0,0,0,0-0.1,0
		c-0.2,0-0.4,0-0.7,0c-0.3,0-0.6,0-0.9,0c-0.9,0-1.9,0-2.9,0.3l0,0l0,0c-2.2,0.6-3.6,1.9-4.4,2.7c-0.1,0.1-0.1,0.1-0.2,0.2
		c-0.2,0.1-0.3,0.2-0.5,0.2c-0.5,0.3-1.1,0.5-1.6,0.8c-1.8,1-3.1,2.7-3.7,4.8c-0.7,2.3-0.4,4.9,0.6,7c-0.5,2.5-1.7,5-3,7.7
		c-2.4,4.8-5,10.3-4.3,17.5c0.2,2,1.1,3.5,2.1,4.6c-0.9,3.9,0.4,7.8,3.7,10.8c3.6,3.2,8.6,4.9,14.8,4.9c4.9,0,9.9-1,13.9-1.8l0.2,0
		c2-0.4,3.8-0.7,5.5-1c5.1-0.9,9.6-1.8,15.6-3.8c0.2,0,0.6,0,1.2,0c0.8,0,1.6,0,2.5,0c0.9,0,1.9,0,2.7,0c1.7,0,2.7-0.1,3.6-0.3
		c4.7-0.9,7.9-6.7,8-6.9l0,0l0,0c1-1.9,2.3-3.2,4.5-4.9c1.3,1.7,3.3,3.4,6.4,4.5c2.8,0.9,5.2,1.4,7.5,1.4c2.5,0,4.7-0.5,6.5-1.6
		c1.8-0.9,2.8-2.1,3.6-2.8c0.1-0.1,0.2-0.3,0.4-0.4c3-3,5.1-5.7,6.8-7.9c1-1.2,1.8-2.3,2.4-3c1.1-1.2,2.2-2.4,3.3-3.6
		c2.4,3.1,6.8,5.4,10,6.5c2.3,0.7,4.6,1.1,6.8,1.1c3.2,0,6.3-0.8,9.1-2.4c1.4-0.8,2.6-1.7,3.6-2.4c0.7-0.5,1.3-0.9,1.8-1.3
		c1.2,0.4,2.8,1,4.7,1.1c0.2,0,0.4,0,0.6,0c6.3,0,9.3-5,10.5-7.1c0.1-0.2,0.3-0.5,0.4-0.7c0.3-0.5,0.7-1.1,1.1-1.9
		c0.3-0.6,0.9-1.7,1.4-2.5c4.3-0.8,8.6-2,12.8-3.2c2-0.6,4-1.1,5.9-1.6c1.5,2,3.7,4.5,8.6,5.7c0.8,0.2,1.9,0.3,3,0.3
		c2.1,0,9-0.4,11.4-5.3c1.1-2.2,0.9-4.7-0.3-6.8c7.4-2.4,11-3.9,15.1-5.5c1.5-0.6,3.1-1.2,5-2c0.7,0.2,1.5,0.4,2.4,0.4
		c1.6,0,3.8-0.5,5.1-1.2c1-0.5,2.1-1,3.3-1.5c1.3-0.6,2.6-1.2,3.8-1.8c0.3-0.1,0.5-0.2,0.6-0.3c0.7,0,1.8-0.1,3.3-0.6
		c0.4-0.2,1-0.3,1.6-0.5c1.3-0.4,2.7-0.9,4-1.5c3.3-1.7,3.7-1.9,5.6-2.8c0.6-0.3,1.4-0.5,2.2-0.8c2.1-0.7,4.5-1.6,6.4-3.2l0,0l0,0
		c2.3-1.9,3.3-4.8,2.6-7.6c-1.3-5.3-8-8.2-10.9-8.7c-0.8-0.2-1.8-0.2-3-0.2c-2.5,0-5.8,0.4-8,1c-6.1,1.7-11.4,3.4-17.7,5.6
		c-5.6,2-10.4,4.1-14.7,5.9c0.8-2.1,1.6-4.4,2.3-7c0.1-0.3,0.2-0.7,0.3-1c0.8-2.8,2.1-7.4-0.7-11.7c-2.1-3.2-6.8-5.7-10.4-6.5
		C440.5,265.8,437.3,265.1,434.5,265.1L434.5,265.1z M301.3,320.7c1.4-0.5,2.7-1,4-1.6c0.6-0.3,1.5-0.6,2.5-0.9c0.1,0,0.1,0,0.2-0.1
		c-1.2,1.5-2.5,3-3.7,4.5c-0.2,0.2-0.4,0.5-0.6,0.7C303.1,322.4,302.3,321.5,301.3,320.7L301.3,320.7z"/>
</g>
<polyline fill="#005F2A" points="441,317 440,334 459.5,326 459.5,308.5 "/>
<g>
	<path fill="#005F2A" d="M420,366.5c14.4,0,26.1,7.8,26.1,17.4s-11.7,17.4-26.1,17.4c-14.4,0-26.1-7.8-26.1-17.4
		S405.6,366.5,420,366.5 M420,358.5c-19.1,0-34.1,11.1-34.1,25.4c0,14.2,15,25.4,34.1,25.4c19.1,0,34.1-11.1,34.1-25.4
		C454.1,369.7,439.1,358.5,420,358.5L420,358.5z"/>
</g>
<g>
	<ellipse fill="#005F2A" cx="420" cy="390.2" rx="23.6" ry="15.7"/>
</g>
<line fill="none" stroke="#005F2A" stroke-width="11" stroke-linecap="round" x1="420" y1="401.3" x2="420" y2="12.2"/>
<path fill="#D7242F" d="M414.5,10.3c0,0-11.3-7.5-20.7,1.4S383,23.5,375,23.1c-8-0.5-9.9,0.5-19.3,4.7s-16,2.8-16,12.7
	s0.9,20.2-8,34.4c-8.9,14.1-8,28.7-8,28.7s7.1-8,17.9-8.9s5.2-5.6,17.9-4.7c12.7,0.9,18.8,6.6,31.5-2.8c12.7-9.4,16-10.4,24-7.5
	L414.5,10.3z"/>
<g>
	<path fill="#005F2A" d="M94,639.4c0.4-0.7,1-1.3,1.2-2c1.1-3.2,2.2-6.4,3.3-9.5c0.8-2.2,0.8-2.2,3.2-2.2c17.5,0,35,0,52.5,0
		c0.7,0,1.4,0.1,2.4,0.2c-1.7,5.1-3,10-5,14.7c-0.2,0-0.4,0-0.5,0c-0.2-0.6-0.6-1.1-0.7-1.7c-0.4-1.7-0.7-3.4-1.1-5
		c-0.4-2-0.6-2.2-2.6-2.2c-4.5,0-9,0-13.5,0c-2.3,0-2.7,0.3-3.3,2.5c-1.9,6.2-3.7,12.4-5.5,18.6c-2.3,7.8-4.6,15.6-6.9,23.4
		c-0.2,0.8-0.5,1.6-0.6,2.4c-0.3,1.5,0,2.9,1.2,4c1.3,1.2,2.5,2.5,3.8,3.9c-1.9,0.7-22.3,0.9-25,0.3c0.1-1,1-1.4,1.7-1.9
		c1.2-0.7,2.4-1.5,3.6-2.1c2.9-1.5,4.5-3.8,5.4-6.9c3.2-11.1,6.5-22.2,9.7-33.3c0.8-2.8,1.7-5.5,2.4-8.3c0.6-2.3,0.2-2.8-2.2-2.8
		c-4,0-8,0-12.1,0c-1.5,0-2.7,0.6-3.6,1.7c-1.6,2-3.4,4-5,6.1c-0.7,0.9-1.5,1.7-2.8,1.7C94,640.4,94,639.9,94,639.4z"/>
	<path fill="#005F2A" d="M586.7,650.2c-3.8,3.9-8.4,5.8-14,5.3c-0.4,0-0.8,0-1.2,0c-2,0.1-2.1,0.1-2.7,2.1
		c-1.6,5.8-3.3,11.7-4.9,17.5c-0.4,1.5-0.8,3-1.2,4.5c-0.5,1.7-0.3,3,1.1,4.2c0.8,0.7,1.5,1.6,2.3,2.5c-2.2,0.7-17.1,0.7-19.3,0
		c0.9-0.8,1.6-1.6,2.4-2.2c2.5-1.6,3.8-3.9,4.6-6.7c2-7,4.2-14,6.2-21c0.8-2.7,0.7-2.9-2-4c-1.6-0.7-3.3-1.1-5-0.9
		c-1.8,0.2-2.5,0.9-2.5,2.7c0,1,0.1,2,0,3c-0.2,2.4-2,3.9-4.3,3.7c-1.8-0.1-2.9-1.2-2.9-3c-0.1-2.8,0.9-5.2,2.9-7.1
		c4-3.8,8.6-5.2,14-3.8c4.1,1,8.1,2,12.2,2.9c1.2,0.3,2.4,0.3,3.7,0.3c2.7,0,4.9-0.7,5.9-3.8c0.6-2,1.9-2.4,4.6-2.2
		C586.7,646.3,586.7,648.3,586.7,650.2z"/>
	<path fill="#005F2A" d="M393,647.6c4,0,8,0,12,0c1.1,0,1.4,0.9,1.7,1.8c1.3,4,2.6,7.9,4,11.9c0.8,2.3,1.5,4.5,2.3,6.8
		c0.2,0.6,0.5,1.2,0.9,2.1c0.8-0.9,1.5-1.6,2.1-2.3c4.9-6.1,9.8-12.2,14.6-18.3c1.2-1.5,2.4-2.2,4.4-2.1c2.9,0.1,5.7,0,8.6,0
		c0.8,0,1.5,0.1,2.3,0.2c0,0.2,0.1,0.4,0.1,0.6c-1,0.5-1.9,1.1-3,1.5c-1.5,0.7-2.5,1.7-3,3.3c-2.8,9.5-5.6,19-8.5,28.5
		c-0.4,1.3-0.1,2.2,0.9,3c0.6,0.5,1.1,1.1,1.7,1.8c-2.2,0.6-13.5,0.6-15.9,0c0.9-0.6,1.6-1.2,2.3-1.7c1.3-0.8,2.2-1.9,2.6-3.4
		c1.7-6,3.5-12,5.2-18c0.1-0.4,0.1-0.9,0.2-1.5c-1.3-0.1-1.6,0.9-2.2,1.5c-3.5,4.3-7.1,8.6-10.5,13c-1.1,1.4-2.2,2.1-3.9,1.9
		c-1.1-0.1-2.3,0-3.6,0c-2.1-5.1-4.1-10.1-6.2-15.2c-0.2,0-0.4,0-0.6,0c-0.4,0.8-0.9,1.6-1.2,2.5c-1.6,4.9-3.2,9.8-4.8,14.7
		c-0.6,1.8-0.4,3.2,1.1,4.4c0.6,0.5,1,1.1,1.9,2.1c-5.4,0-10.3,0-15.5,0c0.6-0.5,0.8-0.9,1.2-1.1c0.8-0.5,1.7-1,2.6-1.4
		c1.9-0.8,2.9-2.2,3.5-4.2c2.6-8.6,5.3-17.1,7.9-25.6c0.7-2.3,0.6-2.6-1.6-3.9c-1.3-0.8-2.6-1.6-3.9-2.4
		C392.9,648,392.9,647.8,393,647.6z"/>
	<path fill="#005F2A" d="M266.5,668.3c2.6,3.2,2.8,6.8,3.4,10.3c0.6,3.1,2,5.5,5,6.8c0.4,0.2,0.7,0.4,1,0.7c0.1,0.1,0.1,0.3,0.3,0.6
		c-0.7,0.1-1.3,0.2-1.9,0.2c-2.6,0-5.3-0.1-7.9,0c-1.7,0.1-2.8-0.6-3.7-1.9c-1.6-2.2-2.5-4.6-2.7-7.3c-0.1-2.2-0.2-4.4-0.4-6.6
		c-0.2-1.9-1.2-3.2-3-3.8c-2.3-0.7-3.8,0-4.6,2.3c-1.1,3.5-2.2,7-3.3,10.6c-0.4,1.4-0.2,2.6,0.7,3.6c0.6,0.7,1.2,1.5,1.9,2.6
		c-2.2,0.8-4.1,0.4-6,0.4c-2,0.1-3.9,0-5.9,0c-1.9,0-3.9,0-5.9,0c0.1-1.4,1-1.8,1.7-2.3c3.4-2.2,5.2-5.4,6.2-9.3
		c1.8-6.8,3.9-13.5,6-20.3c0.6-2,0.5-3.5-1.4-4.7c-0.9-0.6-1.5-1.4-2.6-2.4c0.9-0.2,1.4-0.4,1.9-0.4c6.6,0,13.3,0,19.9,0
		c3.2,0,6.2,0.8,8.8,2.7c4.7,3.5,5.1,8.7,0.8,12.5c-1.7,1.5-3.8,2.5-5.7,3.8C268.4,667.2,267.5,667.6,266.5,668.3z M254.4,663.5
		c2.9,0.2,5.6,0.3,8.3,0c0.2,0,0.3-0.1,0.4-0.2c3.4-1.9,5.3-4.8,5.6-8.7c0.2-2.3-1.1-3.7-3.5-3.9c-1.6-0.1-3.3-0.1-4.9,0
		c-2,0-2.4,0.3-3,2.2c-0.9,2.7-1.8,5.4-2.6,8.2C254.5,661.7,254.5,662.5,254.4,663.5z"/>
	<path fill="#005F2A" d="M190.9,647.6c4.8-0.1,9.6-0.3,14.6,0.1c-0.3,1.2-0.6,2.2-0.9,3.1c-2.5,8.2-5.1,16.5-7.6,24.7
		c-0.2,0.7-0.5,1.4-0.6,2.1c-0.4,2.4,0.8,4.2,3.1,4.9c0.3,0.1,0.6,0.2,1,0.2c5,0.6,13.2-4.5,14.4-9.3c1.6-6.3,3.5-12.5,5.3-18.7
		c0.5-1.8,0.3-3.1-1.3-4.2c-0.9-0.6-1.7-1.5-2.5-2.4c1.6-0.8,12-1,15.3-0.4c0.1,2.4-10.7,38.2-12.2,40.3c-1.4-0.1-2.2-1.2-3.1-2.1
		c-3.3-3.5-3.8-3.6-8-1.3c-2.8,1.5-5.8,2.7-9,3.3c-7.7,1.2-11.8-2.8-11.3-9.9c0.1-1.6,0.5-3.3,0.9-4.8c1.7-6,3.4-12,5.2-18
		c0.6-2.1,0.5-3.6-1.4-4.9c-0.9-0.6-1.5-1.4-2.3-2.1C190.7,648.1,190.8,647.8,190.9,647.6z"/>
	<path fill="#005F2A" d="M373.6,686.4c-2.1,0.7-16.2,0.8-19,0.1c0.9-0.8,1.6-1.6,2.4-2.2c2.4-1.8,4-4,4.6-7c0.4-2,1.1-3.9,1.7-6.1
		c-1-0.2-1.6-0.4-2.2-0.4c-2.1,0-4.3,0-6.4,0c-1.7-0.1-2.7,0.7-3.4,2.3c-1.3,3.4-3.1,6.5-5.5,9.3c-3.2,3.8-7,6.7-12.1,7.3
		c-1.7,0.2-3.4,0-5.1-0.4c-0.8-0.2-1.7-1-2.2-1.8c-0.9-1.3-0.4-2.8,1-3.5c1.3-0.7,2.8-1,4.3-0.4c0.5,0.2,0.9,0.4,1.3,0.6
		c3.1,1.4,4.9,1,6.5-2.1c1.1-2,1.9-4.2,2.7-6.3c1.6-4.2,2.9-8.5,4.6-12.7c1-2.5,2.3-4.9,3.7-7.2c3.1-5,7.8-7.8,13.5-8.5
		c5.4-0.7,10.9-0.7,16.4-1c0.8,0,1.7,0.3,2.7,0.5c-0.2,1.4-1.2,1.6-1.9,1.8c-2,0.7-3,2.1-3.6,4c-2.6,8.9-5.3,17.7-8,26.6
		c-0.5,1.6-0.2,2.8,1.1,3.9C371.7,684.2,372.6,685.3,373.6,686.4z M353.6,668c3.1,0,5.7,0,8.3,0c2.6,0,2.7,0,3.5-2.5
		c1.4-4.1,2.7-8.3,3.9-12.4c0.2-0.7,0.2-1.4,0.4-2.3c-4.1-0.5-7.7-0.3-10.2,3C356.4,657.9,354.9,662.7,353.6,668z"/>
	<path fill="#005F2A" d="M523.4,647.5c5.1,0,10.2,0,15.3,0c0.1,0.2,0.1,0.5,0.2,0.7c-1,0.5-1.9,1.2-2.9,1.5
		c-2.2,0.8-3.4,2.3-4.1,4.5c-3,10-6.1,19.9-9.2,29.9c-0.8,2.8-1,2.8-3.7,2.9c-1.1,0-2.1,0-3.2,0c-2.6,0-2.6,0-3.5-2.4
		c-2.1-6-4.2-11.9-6.3-17.9c-0.3-0.8-0.7-1.6-1.1-2.3c-0.2,0-0.4,0-0.6,0c-0.4,0.7-0.8,1.3-1,2c-1.5,4.9-2.9,9.7-4.4,14.6
		c-0.4,1.4-0.1,2.4,0.8,3.3c0.7,0.7,1.3,1.4,2.1,2.2c-1.9,0.6-12.4,0.8-15.2,0.2c0.8-1.1,2-1.5,3-1.9c2.7-1.2,4.1-3.2,5-6
		c2.3-7.9,4.8-15.7,7.2-23.5c0.9-2.9,0.8-3.1-1.9-4.7c-1.3-0.7-2.5-1.5-4.2-2.5c1.1-0.2,1.6-0.5,2.1-0.5c3,0,5.9,0,8.9,0
		c2.2,0,2.2,0.1,2.9,2.2c2.7,8.4,5.3,16.7,8,25.1c0.3,0.8,0.6,1.6,1,2.4c0.2,0,0.4,0,0.6,0c0.3-0.7,0.8-1.3,1-2
		c2.3-7,4.5-14,6.8-21.1c0.7-2.3,0.6-2.6-1.4-4.1c-0.8-0.6-1.5-1.2-2.3-1.8C523.3,647.9,523.3,647.7,523.4,647.5z"/>
	<path fill="#005F2A" d="M292.1,647.5c1.1,0,2.2,0,3.3,0c2.2,0,4.4,0,6.6,0c2.5,0,2.5,0,3.3,2.4c2.6,8.2,5.2,16.4,7.9,24.6
		c0.3,0.9,0.7,1.8,1.2,3.2c0.6-1,1.1-1.4,1.3-2c2.4-7.4,4.8-14.8,7.2-22.2c0.5-1.4,0.1-2.4-1.1-3.2c-1-0.7-1.9-1.4-2.8-2.4
		c5.1-0.6,10.2-0.4,15.4-0.4c-0.2,1.5-1.2,1.7-2,1.9c-2.9,0.8-4.3,2.9-5.1,5.7c-2.8,9.6-5.8,19.1-8.7,28.7c-0.9,3.1-1,3.2-4.3,3.2
		c-6.6-0.1-5,1-7.3-5.1c-1.8-5-3.5-10.1-5.3-15.1c-0.3-0.8-0.7-1.6-1-2.4c-0.2,0-0.4,0-0.6-0.1c-0.4,0.6-0.9,1.2-1.1,1.9
		c-1.5,4.9-2.9,9.7-4.4,14.6c-0.4,1.4-0.1,2.6,0.9,3.6c0.6,0.6,1.2,1.3,1.8,2c-1.6,0.7-11.7,0.9-15.1,0.2c0.5-0.4,0.9-0.8,1.3-1
		c0.8-0.5,1.6-0.9,2.4-1.3c2.2-0.9,3.4-2.7,4.1-4.9c2-6.5,4-13,6-19.5c0.6-1.8,1.1-3.6,1.7-5.4c0.6-2,0.4-2.5-1.4-3.6
		c-1.5-0.9-2.9-1.7-4.4-2.6C292,648.1,292,647.8,292.1,647.5z"/>
	<path fill="#005F2A" d="M138.3,672c0.1-9.9,7.2-20.3,16.3-24.2c9-3.9,21.7,1.3,24.2,10.9c1.1,4,0.9,7.8-0.8,11.5
		c-3.7,8.3-9.9,14-18.4,17.1c-3.3,1.2-6.7,1.4-10.2,0.5C142.7,686,138.3,679.7,138.3,672z M171.4,662c-0.3-1.2-0.5-3.5-1.3-5.5
		c-1.2-3.3-3.7-4.9-7.2-5c-3.7-0.1-6.7,1.3-9.2,4c-4.3,4.8-6.3,10.5-6.5,16.8c-0.1,2.5,0.5,4.9,1.7,7.1c2.1,3.7,5.7,5,9.6,3.3
		c0.7-0.3,1.3-0.6,2-1C167.5,677.4,171,671.1,171.4,662z"/>
	<path fill="#005F2A" d="M471.9,672.7c-0.1-0.8-0.3-1.6-0.4-2.3c-0.4-2-1.1-2.7-3.1-3c-0.1,0-0.2,0-0.2,0c-3.9-0.5-4.3-0.3-5.5,3.4
		c-1.1,3.2-2.1,6.4-3.1,9.6c-0.3,0.8-0.4,1.7-0.6,2.6c0.6,0.2,1,0.4,1.4,0.4c3.6,0,7.2,0.1,10.8,0c1,0,2.1-0.5,2.9-1.2
		c1.4-1.2,2.6-2.7,3.8-4.1c0.6-0.7,1.3-1.4,1.9-2.1c0.2,0.1,0.4,0.1,0.6,0.2c-0.1,0.9,0,1.9-0.2,2.7c-0.6,2.1-1.2,4.1-1.9,6.1
		c-0.6,1.9-0.8,2-2.9,2c-5.7,0-11.5,0-17.2,0c-4.1,0-8.2,0-12.3,0c-0.8,0-1.6-0.1-2.3-0.1c-0.1-0.2-0.1-0.3-0.2-0.5
		c0.7-0.7,1.4-1.4,2.3-2c6-4.3,5-3.5,7.1-10.3c1.9-6.3,3.7-12.6,5.7-18.8c0.6-2,0.6-3.5-1.3-4.7c-0.9-0.6-1.6-1.5-2.9-2.6
		c11.5,0,22.3,0,33.2,0c0.2,2.6-2.4,9.1-4.5,10.8c-0.2-0.9-0.3-1.7-0.4-2.4c-0.1-0.9-0.1-1.8-0.4-2.7c-0.6-2.1-1.5-2.8-3.7-2.9
		c-2.3,0-4.6,0-6.9,0c-1.7,0-2.8,0.7-3.3,2.4c-0.9,2.9-1.8,5.8-2.7,8.7c-0.1,0.4-0.1,0.9-0.2,1.5c2,0.6,4,0.3,5.9,0.1
		c2.2-0.2,3.1-2.2,4.6-3.6C476,662,473.7,670.4,471.9,672.7z"/>
</g>
</svg>
